<svg width="1280" height="720" viewBox="0 0 1280 720" fill="none" xmlns="http://www.w3.org/2000/svg">
  <rect width="1280" height="720" rx="32" fill="#EEF4FF"/>
  <rect x="28" y="28" width="1224" height="664" rx="28" fill="#F9FBFF" stroke="#D9E4F8"/>
  <rect x="54" y="54" width="1172" height="76" rx="20" fill="#FFFFFF" stroke="#E4EBF8"/>
  <rect x="54" y="156" width="360" height="236" rx="24" fill="#FFFFFF" stroke="#E4EBF8"/>
  <rect x="438" y="156" width="360" height="236" rx="24" fill="#FFFFFF" stroke="#E4EBF8"/>
  <rect x="822" y="156" width="404" height="236" rx="24" fill="#FFFFFF" stroke="#E4EBF8"/>
  <rect x="54" y="418" width="1172" height="248" rx="24" fill="#FFFFFF" stroke="#E4EBF8"/>
  <circle cx="98" cy="92" r="12" fill="#34D399"/>
  <rect x="124" y="80" width="196" height="24" rx="12" fill="#DCE9FF"/>
  <rect x="1026" y="76" width="168" height="32" rx="16" fill="#53B3FF"/>
  <circle cx="144" cy="234" r="48" fill="#DCE9FF"/>
  <circle cx="144" cy="226" r="18" fill="#98B7EE"/>
  <path d="M114 268C122 245 166 245 174 268" stroke="#98B7EE" stroke-width="12" stroke-linecap="round"/>
  <rect x="222" y="198" width="140" height="18" rx="9" fill="#DCE9FF"/>
  <rect x="222" y="238" width="112" height="16" rx="8" fill="#E8F0FD"/>
  <rect x="222" y="272" width="126" height="16" rx="8" fill="#E8F0FD"/>
  <rect x="470" y="194" width="188" height="20" rx="10" fill="#DCE9FF"/>
  <rect x="470" y="234" width="296" height="44" rx="14" fill="#F5F8FF" stroke="#E4EBF8"/>
  <rect x="470" y="292" width="190" height="40" rx="14" fill="#53B3FF"/>
  <rect x="854" y="194" width="188" height="20" rx="10" fill="#DCE9FF"/>
  <rect x="854" y="240" width="110" height="28" rx="14" fill="#DCFCE7"/>
  <rect x="976" y="240" width="102" height="28" rx="14" fill="#EDE9FE"/>
  <rect x="1090" y="240" width="92" height="28" rx="14" fill="#FDE68A"/>
  <rect x="854" y="292" width="308" height="16" rx="8" fill="#E8F0FD"/>
  <rect x="854" y="326" width="264" height="16" rx="8" fill="#E8F0FD"/>
  <rect x="92" y="456" width="176" height="18" rx="9" fill="#DCE9FF"/>
  <rect x="92" y="506" width="1096" height="18" rx="9" fill="#EDF3FD"/>
  <rect x="92" y="552" width="1096" height="18" rx="9" fill="#EDF3FD"/>
  <rect x="92" y="598" width="1096" height="18" rx="9" fill="#EDF3FD"/>
</svg>
