<svg width="1280" height="720" viewBox="0 0 1280 720" fill="none" xmlns="http://www.w3.org/2000/svg">
  <rect width="1280" height="720" rx="32" fill="#F6F9FF"/>
  <rect x="24" y="24" width="1232" height="672" rx="24" fill="white" stroke="#DDE7F7"/>
  <rect x="48" y="48" width="260" height="624" rx="20" fill="#F4F7FD"/>
  <rect x="336" y="48" width="896" height="88" rx="20" fill="#F8FAFF" stroke="#E5EBF8"/>
  <rect x="336" y="160" width="896" height="220" rx="24" fill="#0F172A"/>
  <rect x="336" y="404" width="438" height="244" rx="24" fill="#FFFFFF" stroke="#E5EBF8"/>
  <rect x="794" y="404" width="438" height="244" rx="24" fill="#FFFFFF" stroke="#E5EBF8"/>
  <rect x="72" y="88" width="128" height="20" rx="10" fill="#D9E6FA"/>
  <rect x="72" y="136" width="204" height="16" rx="8" fill="#E5EDFA"/>
  <rect x="72" y="184" width="180" height="16" rx="8" fill="#E5EDFA"/>
  <rect x="72" y="232" width="164" height="16" rx="8" fill="#E5EDFA"/>
  <rect x="72" y="280" width="196" height="16" rx="8" fill="#CFE2FF"/>
  <rect x="72" y="328" width="152" height="16" rx="8" fill="#E5EDFA"/>
  <rect x="368" y="76" width="178" height="18" rx="9" fill="#D8E6FF"/>
  <rect x="368" y="104" width="360" height="14" rx="7" fill="#E7EFFD"/>
  <rect x="368" y="192" width="144" height="16" rx="8" fill="#1E293B"/>
  <rect x="368" y="226" width="98" height="28" rx="14" fill="#10B981"/>
  <rect x="480" y="226" width="120" height="28" rx="14" fill="#334155"/>
  <rect x="614" y="226" width="114" height="28" rx="14" fill="#334155"/>
  <rect x="742" y="226" width="86" height="28" rx="14" fill="#334155"/>
  <rect x="368" y="278" width="830" height="18" rx="9" fill="#233047"/>
  <rect x="368" y="316" width="692" height="18" rx="9" fill="#233047"/>
  <rect x="368" y="444" width="170" height="18" rx="9" fill="#DCE9FF"/>
  <rect x="368" y="486" width="360" height="14" rx="7" fill="#E7EFFD"/>
  <rect x="368" y="520" width="330" height="14" rx="7" fill="#E7EFFD"/>
  <rect x="826" y="444" width="170" height="18" rx="9" fill="#DCE9FF"/>
  <rect x="826" y="486" width="332" height="14" rx="7" fill="#E7EFFD"/>
  <rect x="826" y="520" width="292" height="14" rx="7" fill="#E7EFFD"/>
</svg>
